<?xml version="1.0" encoding="utf-8"?>
<svg version="1.1" id="Calque_1" xmlns="http://www.w3.org/2000/svg" xmlns:xlink="http://www.w3.org/1999/xlink" x="0px" y="0px"
	 viewBox="1200 -1169 2500 2438" enable-background="new 1200 -1169 2500 2438" xml:space="preserve">
<g>
	<path fill="#b65674" d="M1917.8,29.7v427.1c0,83.7,264,151.5,589.6,151.5s589.6-67.8,589.6-151.5V38.7l-589.6,184.1L1917.8,29.7z"
		/>
	<path fill="#b65674" d="M1758.1,231.8c0-20.7-12.5-38.5-30.4-46.3v-303l779.6,255.4l982.6-306.8l-982.6-313l-982.6,298l162.9,53.4
		v316.1c-17.9,7.7-30.4,25.5-30.4,46.3c0,22.5,14.8,41.6,35.2,48.1L1607,550.8l208.7-42.2l-89.6-229.8
		C1744.9,271.4,1758.1,253.2,1758.1,231.8z"/>
</g>
</svg>
