<?xml version="1.0" encoding="utf-8"?>
<!-- Generator: Adobe Illustrator 18.1.0, SVG Export Plug-In . SVG Version: 6.00 Build 0)  -->
<svg version="1.1" id="Layer_1" xmlns="http://www.w3.org/2000/svg" xmlns:xlink="http://www.w3.org/1999/xlink" x="0px" y="0px"
	 viewBox="400 -256 720 612" enable-background="new 400 -256 720 612" xml:space="preserve">
<g>
	<polygon fill="#73d5e1" points="467.9,211.3 440.8,-92.4 738.3,-92.4 711.2,211.2 589.4,245 	"/>
	<polygon fill="#91edf6" points="589.5,219.2 688,191.9 711.1,-67.5 589.5,-67.5 	"/>
	<polygon fill="#EBEBEB" points="589.5,45.1 540.3,45.1 536.9,6.9 589.5,6.9 589.5,-30.3 589.4,-30.3 496.2,-30.3 497.1,-20.3 
		506.2,82.3 589.5,82.3 	"/>
	<polygon fill="#EBEBEB" points="589.5,141.8 589.4,141.8 547.9,130.6 545.3,100.9 525.1,100.9 507.9,100.9 513.1,159.4 
		589.4,180.6 589.5,180.5 	"/>
	<path fill="#73d5e1" d="M468.5-174.9h18.9v18.7h17.3v-18.7h18.9v56.6h-18.9v-19h-17.3v19h-18.9V-174.9L468.5-174.9z"/>
	<path fill="#73d5e1" d="M548.5-156.1h-16.7v-18.8h52.3v18.8h-16.7v37.8h-18.9L548.5-156.1L548.5-156.1z"/>
	<path fill="#73d5e1" d="M592.4-174.9h19.7l12.1,19.9l12.1-19.9h19.7v56.6h-18.8v-28.1l-13,20.1H624l-13-20.1v28.1h-18.5
		L592.4-174.9L592.4-174.9z"/>
	<path fill="#73d5e1" d="M665.6-174.9h18.9v37.9h26.6v18.7h-45.5L665.6-174.9L665.6-174.9z"/>
	<polygon fill="#FFFFFF" points="589.4,45.1 589.4,82.3 635.3,82.3 631,130.6 589.4,141.8 589.4,180.6 665.8,159.4 666.3,153.1 
		675.1,55.1 676,45.1 665.9,45.1 	"/>
	<polygon fill="#FFFFFF" points="589.4,-30.3 589.4,-7.2 589.4,6.9 589.4,6.9 679.2,6.9 679.2,6.9 679.4,6.9 680.1,-1.4 
		681.8,-20.3 682.7,-30.3 	"/>
</g>
<g>
	<path fill="#73d5e1" d="M1031.2-159.3h-24.7l25.7,27.9v13.3h-52.9v-15.5h25.7l-25.7-27.9v-13.3h51.9V-159.3L1031.2-159.3z
		 M968.8-159.3h-24.7l25.7,27.9v13.3h-52.9v-15.5h25.7l-25.7-27.9v-13.3h51.9L968.8-159.3L968.8-159.3z M907-158.7h-26.6v24.3H907
		v16.2h-45.6v-56.7H907V-158.7z"/>
</g>
<polygon fill="#73d5e1" points="825.1,211.3 798.1,-92.3 1095.5,-92.3 1068.4,211.2 946.6,245 "/>
<polygon fill="#91edf6" points="946.8,219.2 1045.2,191.9 1068.4,-67.5 946.8,-67.5 "/>
<g>
	<polygon fill="#FFFFFF" points="946.8,42.5 996.1,42.5 999.5,4.4 946.8,4.4 946.8,-32.9 946.9,-32.9 1040.2,-32.9 1039.3,-22.9 
		1030.1,79.7 946.8,79.7 	"/>
	<polygon fill="#EBEBEB" points="947,139.2 946.9,139.3 905.4,128.1 902.7,98.4 882.6,98.4 865.4,98.4 870.6,156.8 946.8,178 
		947,177.9 	"/>
	<polygon fill="#FFFFFF" points="992.9,78.2 988.4,128 946.9,139.2 946.9,178 1023.2,156.8 1023.8,150.5 1030.3,78.2 	"/>
	<polygon fill="#EBEBEB" points="946.9,-32.9 946.9,-9.7 946.9,4.3 946.9,4.4 857.1,4.4 857.1,4.4 857,4.4 856.2,-4 854.5,-22.9 
		853.6,-32.9 	"/>
	<polygon fill="#EBEBEB" points="946.8,42.5 946.8,65.6 946.8,79.6 946.8,79.7 906,79.7 906,79.7 905.8,79.7 905.1,71.4 903.4,52.5 
		902.5,42.5 	"/>
</g>
</svg>
