<?xml version="1.0" encoding="utf-8"?>
<!-- Generator: Adobe Illustrator 18.1.0, SVG Export Plug-In . SVG Version: 6.00 Build 0)  -->
<svg width="25" height="25" version="1.1" id="Calque_1" xmlns="http://www.w3.org/2000/svg" xmlns:xlink="http://www.w3.org/1999/xlink" x="0px" y="0px"
	 viewBox="0 -10 100 100" enable-background="new 0 -10 100 100" xml:space="preserve">
<path fill="#f6c758" d="M1284.1-1094.2h-67c-1.1,0-2-0.9-2-2v-44.5c0-1.1,0.9-2,2-2h67c1.1,0,2,0.9,2,2v44.5
	C1286.1-1095.1,1285.2-1094.2,1284.1-1094.2z"/>
<path fill="none" stroke="#f6c758" stroke-width="5" stroke-miterlimit="10" d="M55.6,41.5H43.2c-5.4,0-9.7-4.4-9.7-9.7v0
	c0-5.4,4.4-9.7,9.7-9.7h12.3c5.4,0,9.7,4.4,9.7,9.7v0C65.3,37.1,60.9,41.5,55.6,41.5z"/>
<path fill="#f6c758" d="M69.7,57.3h-42c-9.9,0-18-5.3-18-15.2v37.3c0,2.2,1.8,4,4,4h70c2.2,0,4-1.8,4-4V42.2
	C87.7,52.1,79.6,57.3,69.7,57.3z"/>
<path fill="#f6c758" d="M84.7,30.2h-72c-1.7,0-3,1.3-3,3v3c0,9.9,8.1,18,18,18h42c9.9,0,18-8.1,18-18v-3
	C87.7,31.5,86.3,30.2,84.7,30.2z M51.8,52.3H47v-3.5h4.8V52.3z"/>
</svg>
