<?xml version="1.0" encoding="utf-8"?>
<!-- Generator: Adobe Illustrator 18.1.0, SVG Export Plug-In . SVG Version: 6.00 Build 0)  -->
<svg version="1.1" id="Calque_1" xmlns="http://www.w3.org/2000/svg" xmlns:xlink="http://www.w3.org/1999/xlink" x="0px" y="0px"
	 viewBox="1200 -1038 234 228.2" enable-background="new 1200 -1038 234 228.2" xml:space="preserve">
<path fill="#1CCDC0" d="M1209.7-1028.3h214.5v208.7h-214.5V-1028.3z M1200-809.9h234V-1038h-234V-809.9z M1357.8-944.4
	c-7.7,0-10.3,3.9-10.3,7.1c0,3.5,1.8,5.9,12.1,11.3c15.3,7.4,20.1,14.5,20.1,25c0,15.6-11.9,24-28,24c-8.5,0-15.8-1.8-20-4.2
	c-0.7-0.3-0.8-0.8-0.8-1.6v-14.3c0-1,0.5-1.3,1.2-0.8c6.1,4,13.2,5.8,19.6,5.8c7.7,0,10.9-3.2,10.9-7.6c0-3.5-2.2-6.6-12.1-11.7
	c-13.8-6.6-19.6-13.4-19.6-24.6c0-12.6,9.8-23,26.9-23c8.4,0,14.2,1.3,17.5,2.7c0.8,0.5,1,1.3,1,1.9v13.4c0,0.8-0.5,1.3-1.5,1
	C1370.4-942.7,1364.1-944.4,1357.8-944.4L1357.8-944.4z M1273.9-932.8c2.2,0.2,4,0.2,7.9,0.2c11.4,0,22.1-4,22.1-19.5
	c0-12.4-7.7-18.6-20.7-18.6c-3.9,0-7.6,0.2-9.4,0.3V-932.8z M1256.6-984.6c0-0.7,1.4-1.2,2.1-1.2c6.2-0.3,15.5-0.5,25.2-0.5
	c27,0,37.5,14.8,37.5,33.7c0,24.8-17.9,35.4-40,35.4c-3.7,0-5-0.2-7.6-0.2v37.4c0,0.8-0.3,1.2-1.2,1.2h-14.9c-0.8,0-1.2-0.3-1.2-1.2
	L1256.6-984.6L1256.6-984.6z"/>
</svg>
