<svg xmlns:svg="http://www.w3.org/2000/svg" xmlns="http://www.w3.org/2000/svg" width="100" height="70" viewBox="0 0 290.87307 151.36606">
  <ellipse style="fill:#f6cc68;fill-rule:evenodd" ry="66.629997" rx="128" cy="75.706528" cx="145.43654"/>
  <path style="fill:#ffe6ab;fill-rule:evenodd" d="m 53.381539,115.15853 14.028,-71.014 32.437,0 c 14.027001,0.877 21.041001,7.89 21.041001,20.165 0,21.041 -16.657,33.315 -31.562001,32.438 l -15.779,0 -3.507,18.411 -16.658,0 z m 23.671,-31.561 4.384,-26.302 11.397,0 c 6.137,0 10.520001,2.63 10.520001,7.89 -0.876,14.905 -7.890001,17.535 -15.780001,18.412 l -10.52,0 z m 40.576001,13.15 14.027,-71.013 16.658,0 -3.507,18.41 15.78,0 c 14.028,0.877 19.288,7.89 17.535,16.658 l -6.137,35.945 -17.534,0 6.137,-32.438 c 0.876,-4.384 0.876,-7.014 -5.26,-7.014 l -13.151,0 -7.89,39.452 -16.658,0 z m 53.233,18.411 14.027,-71.014 32.438,0 c 14.028,0.877 21.042,7.89 21.042,20.165 0,21.041 -16.658,33.315 -31.562,32.438 l -15.781,0 -3.507,18.411 -16.657,0 z m 23.67,-31.561 4.384,-26.302 11.398,0 c 6.137,0 10.52,2.63 10.52,7.89 -0.876,14.905 -7.89,17.535 -15.78,18.412 l -10.521,0 z"/>
</svg>