<svg width="2683" height="2033" viewBox="0 0 2683 2033" fill="none" xmlns="http://www.w3.org/2000/svg">
<path d="M685.716 1892V1528.36H822.08C850.015 1528.36 873.453 1533.22 892.392 1542.92C911.45 1552.63 925.832 1566.24 935.539 1583.76C945.363 1601.16 950.276 1621.46 950.276 1644.66C950.276 1667.98 945.304 1688.22 935.361 1705.39C925.536 1722.43 911.036 1735.63 891.86 1744.98C872.683 1754.22 849.128 1758.83 821.192 1758.83H724.068V1704.14H812.314C828.649 1704.14 842.025 1701.9 852.442 1697.4C862.859 1692.78 870.553 1686.09 875.524 1677.33C880.614 1668.46 883.159 1657.57 883.159 1644.66C883.159 1631.76 880.614 1620.75 875.524 1611.64C870.434 1602.4 862.681 1595.42 852.264 1590.69C841.848 1585.83 828.413 1583.41 811.959 1583.41H751.59V1892H685.716ZM873.571 1727.23L963.593 1892H890.084L801.661 1727.23H873.571ZM1124.9 1897.33C1097.56 1897.33 1073.94 1891.64 1054.06 1880.28C1034.29 1868.8 1019.08 1852.58 1008.43 1831.63C997.772 1810.56 992.445 1785.76 992.445 1757.23C992.445 1729.18 997.772 1704.56 1008.43 1683.37C1019.2 1662.06 1034.23 1645.49 1053.53 1633.65C1072.82 1621.7 1095.49 1615.72 1121.53 1615.72C1138.34 1615.72 1154.2 1618.44 1169.11 1623.89C1184.15 1629.22 1197.41 1637.5 1208.89 1648.75C1220.49 1659.99 1229.6 1674.32 1236.23 1691.72C1242.86 1709 1246.17 1729.59 1246.17 1753.51V1773.21H1022.63V1729.89H1184.56C1184.44 1717.58 1181.78 1706.63 1176.57 1697.04C1171.36 1687.34 1164.08 1679.7 1154.73 1674.14C1145.5 1668.57 1134.73 1665.79 1122.42 1665.79C1109.28 1665.79 1097.74 1668.99 1087.79 1675.38C1077.85 1681.65 1070.1 1689.94 1064.53 1700.24C1059.09 1710.42 1056.31 1721.6 1056.19 1733.8V1771.62C1056.19 1787.48 1059.09 1801.09 1064.89 1812.45C1070.69 1823.7 1078.8 1832.34 1089.21 1838.38C1099.63 1844.3 1111.82 1847.26 1125.79 1847.26C1135.14 1847.26 1143.61 1845.95 1151.18 1843.35C1158.76 1840.63 1165.33 1836.66 1170.89 1831.45C1176.45 1826.24 1180.66 1819.79 1183.5 1812.1L1243.51 1818.85C1239.72 1834.71 1232.5 1848.56 1221.85 1860.39C1211.31 1872.11 1197.82 1881.23 1181.37 1887.74C1164.91 1894.13 1146.09 1897.33 1124.9 1897.33ZM1379.03 1897.5C1361.75 1897.5 1346.18 1894.43 1332.33 1888.27C1318.6 1882 1307.71 1872.76 1299.66 1860.57C1291.73 1848.38 1287.77 1833.35 1287.77 1815.47C1287.77 1800.08 1290.61 1787.36 1296.29 1777.3C1301.97 1767.24 1309.72 1759.19 1319.55 1753.15C1329.37 1747.11 1340.44 1742.56 1352.75 1739.48C1365.18 1736.28 1378.02 1733.97 1391.28 1732.55C1407.26 1730.9 1420.22 1729.42 1430.17 1728.12C1440.11 1726.69 1447.33 1724.56 1451.83 1721.72C1456.45 1718.76 1458.75 1714.21 1458.75 1708.05V1706.99C1458.75 1693.61 1454.79 1683.25 1446.86 1675.91C1438.93 1668.57 1427.5 1664.9 1412.59 1664.9C1396.85 1664.9 1384.36 1668.34 1375.12 1675.2C1366.01 1682.07 1359.85 1690.18 1356.66 1699.53L1296.64 1691.01C1301.38 1674.43 1309.19 1660.58 1320.08 1649.46C1330.97 1638.21 1344.29 1629.81 1360.03 1624.24C1375.78 1618.56 1393.18 1615.72 1412.23 1615.72C1425.37 1615.72 1438.45 1617.26 1451.47 1620.34C1464.5 1623.42 1476.39 1628.51 1487.16 1635.61C1497.93 1642.59 1506.58 1652.12 1513.09 1664.19C1519.72 1676.27 1523.03 1691.36 1523.03 1709.47V1892H1461.24V1854.54H1459.11C1455.2 1862.11 1449.7 1869.21 1442.6 1875.84C1435.61 1882.35 1426.79 1887.62 1416.14 1891.64C1405.61 1895.55 1393.24 1897.5 1379.03 1897.5ZM1395.72 1850.27C1408.62 1850.27 1419.81 1847.73 1429.28 1842.64C1438.75 1837.43 1446.03 1830.57 1451.12 1822.04C1456.33 1813.52 1458.93 1804.23 1458.93 1794.17V1762.03C1456.92 1763.69 1453.49 1765.22 1448.63 1766.64C1443.9 1768.07 1438.57 1769.31 1432.65 1770.37C1426.73 1771.44 1420.88 1772.39 1415.08 1773.21C1409.27 1774.04 1404.24 1774.75 1399.98 1775.35C1390.39 1776.65 1381.81 1778.78 1374.24 1781.74C1366.66 1784.7 1360.68 1788.84 1356.3 1794.17C1351.92 1799.37 1349.73 1806.12 1349.73 1814.41C1349.73 1826.24 1354.05 1835.18 1362.7 1841.22C1371.34 1847.26 1382.35 1850.27 1395.72 1850.27ZM1706.62 1897.33C1679.4 1897.33 1656.02 1891.35 1636.49 1879.39C1617.08 1867.44 1602.1 1850.93 1591.57 1829.86C1581.15 1808.67 1575.94 1784.28 1575.94 1756.7C1575.94 1729 1581.27 1704.56 1591.92 1683.37C1602.58 1662.06 1617.61 1645.49 1637.02 1633.65C1656.55 1621.7 1679.63 1615.72 1706.27 1615.72C1728.4 1615.72 1747.99 1619.81 1765.04 1627.97C1782.2 1636.02 1795.88 1647.45 1806.06 1662.24C1816.24 1676.92 1822.04 1694.08 1823.46 1713.73H1762.02C1759.54 1700.59 1753.62 1689.64 1744.27 1680.88C1735.03 1672.01 1722.66 1667.57 1707.16 1667.57C1694.02 1667.57 1682.48 1671.12 1672.53 1678.22C1662.59 1685.21 1654.84 1695.27 1649.27 1708.41C1643.83 1721.55 1641.1 1737.29 1641.1 1755.64C1641.1 1774.22 1643.83 1790.2 1649.27 1803.58C1654.72 1816.83 1662.35 1827.07 1672.18 1834.29C1682.12 1841.4 1693.78 1844.95 1707.16 1844.95C1716.63 1844.95 1725.09 1843.17 1732.55 1839.62C1740.12 1835.95 1746.46 1830.68 1751.55 1823.82C1756.64 1816.95 1760.13 1808.61 1762.02 1798.78H1823.46C1821.92 1818.08 1816.24 1835.18 1806.41 1850.1C1796.59 1864.89 1783.21 1876.49 1766.28 1884.9C1749.36 1893.18 1729.47 1897.33 1706.62 1897.33ZM2012.42 1619.27V1668.99H1855.64V1619.27H2012.42ZM1894.35 1553.93H1958.62V1809.97C1958.62 1818.61 1959.92 1825.24 1962.53 1829.86C1965.25 1834.35 1968.8 1837.43 1973.18 1839.09C1977.56 1840.75 1982.41 1841.57 1987.74 1841.57C1991.76 1841.57 1995.43 1841.28 1998.75 1840.69C2002.18 1840.09 2004.79 1839.56 2006.56 1839.09L2017.39 1889.34C2013.96 1890.52 2009.05 1891.82 2002.66 1893.24C1996.38 1894.66 1988.69 1895.49 1979.57 1895.73C1963.47 1896.2 1948.97 1893.78 1936.07 1888.45C1923.17 1883 1912.93 1874.6 1905.35 1863.24C1897.9 1851.87 1894.23 1837.67 1894.35 1820.62V1553.93Z" fill="#ecccb1"/>
<path d="M1341.5 855.254C1420.31 855.254 1484.2 791.341 1484.2 712.5C1484.2 633.659 1420.31 569.746 1341.5 569.746C1262.69 569.746 1198.8 633.659 1198.8 712.5C1198.8 791.341 1262.69 855.254 1341.5 855.254Z" fill="#ecccb1"/>
<path d="M1341.5 1004.97C1764.38 1004.97 2107.2 874.028 2107.2 712.5C2107.2 550.972 1764.38 420.028 1341.5 420.028C918.618 420.028 575.805 550.972 575.805 712.5C575.805 874.028 918.618 1004.97 1341.5 1004.97Z" stroke="#ecccb1" stroke-width="42"/>
<path d="M1088.31 858.736C1299.75 1225.11 1584.52 1456.64 1724.35 1375.87C1864.18 1295.11 1806.13 932.636 1594.69 566.264C1383.25 199.892 1098.48 -31.6383 958.653 49.1257C818.821 129.89 876.871 492.365 1088.31 858.736Z" stroke="#ecccb1" stroke-width="42"/>
<path d="M1088.31 566.264C876.871 932.636 818.82 1295.11 958.652 1375.87C1098.48 1456.64 1383.25 1225.11 1594.69 858.736C1806.13 492.365 1864.18 129.89 1724.35 49.1257C1584.52 -31.6383 1299.75 199.892 1088.31 566.264Z" stroke="#ecccb1" stroke-width="42"/>
</svg>